<svg class="img-fluid" xmlns="http://www.w3.org/2000/svg" style="transform:none;transform-origin:50% 50%;cursor:move;max-height:351.76px" width="512" height="512" viewBox="0 0 5120 5120"><path d="M330 2770V530h165c140 0 165-2 165-15s138-15 1180-15h1180v690h700v1278l-216 374-216 373-44 310c-25 171-43 315-42 322 2 6 103-67 226-163 190-148 228-174 258-174h34v540c0 473-2 540-15 540s-15 30-15 210v210H330zm1769 1255c36-18 61-71 61-128v-44l51-5c42-4 57-12 87-41l35-36 8-119c12-175 39-242 168-427 164-233 219-363 228-535 17-328-184-590-532-696-79-24-107-27-230-27-162-1-247 18-380 82-250 120-395 340-395 598 0 171 49 310 174 494 188 277 211 328 222 504 5 69 13 117 24 137 21 39 73 68 122 68h38v50c0 61 20 104 58 124 38 21 222 22 261 1M955 2630c10-16-34-29-135-39-97-10-126-3-102 21 21 21 226 37 237 18m2257-11c21-11 23-25 6-32-17-6-210 16-226 26-7 5-9 13-6 19 8 12 199 1 226-13m-1922-648c0-11-155-184-164-182-14 2-4 18 70 102 75 84 94 100 94 80m1533-185c-8-12-172 164-172 184 0 8 40-28 89-80 48-52 86-99 83-104m-838-202c0-99-3-119-15-119s-16 20-18 109c-3 117 1 140 21 133 9-3 12-36 12-123m2055 1341c0-32 2-35 30-35s30 3 30 35-2 35-30 35-30-3-30-35" style="transform:none" fill="#E9E9FF"/><g style="transform:none" fill="#D1D1F0"><path d="M250 2770V530h110v4480H250zm1558 1284c-50-27-79-114-38-114 13 0 20 7 20 20 0 22 44 70 65 70 8 0 15 9 15 20 0 24-23 26-62 4m262-4c0-11 7-20 15-20 23 0 55-37 62-70 4-21 11-30 24-30 24 0 25 30 3 76-26 54-104 87-104 44m1080-101c0-2 24-175 54-384l54-380 218-377c120-208 222-378 226-378 5 0 8 16 8 35 0 28-4 35-20 35s-20 7-20 35-4 35-20 35-20 7-20 35c0 24-5 35-15 35-9 0-15 9-15 25 0 18-5 25-20 25-16 0-20 7-20 35s-4 35-20 35-20 7-20 35-4 35-20 35-20 7-20 35c0 24-5 35-15 35-9 0-15 9-15 25 0 18-5 25-20 25-16 0-20 7-20 35s-4 35-20 35-20 7-20 35-4 35-20 35-20 7-20 35c0 23-5 35-14 35-15 0-16 1-56 280-16 113-36 248-45 300-18 118-19 110 5 110 11 0 20-7 20-15s9-15 20-15 20-7 20-15c0-9 9-15 25-15 18 0 25-5 25-20 0-13 7-20 19-20 10 0 21-9 24-20 3-12 14-20 26-20s21-6 21-15 8-19 18-22c9-4 21-12 25-20 4-7 16-13 26-13s21-9 24-20 12-20 20-20 17-7 21-15c3-8 14-15 25-15 10 0 21-9 24-20 3-12 14-20 26-20s21-6 21-15c0-10 11-15 35-15 33 0 35 2 35 35 0 24-5 35-15 35-8 0-15-7-15-15s-2-15-5-15c-2 0-107 80-232 178-269 210-303 236-303 231m-920-89c0-16 7-20 35-20 40 0 49 24 13 34-38 10-48 7-48-14m100-85c0-28 4-35 20-35 21 0 24 10 14 48-10 36-34 27-34-13m0-110c0-28 4-35 20-35s20 7 20 35-4 35-20 35-20-7-20-35"/><path d="M3630 3440c0-16-7-20-35-20-33 0-35-2-35-35s2-35 35-35c28 0 35 4 35 20s7 20 35 20c33 0 35 2 35 35s-2 35-35 35c-28 0-35-4-35-20m150-65c0-33 2-35 35-35s35 2 35 35-2 35-35 35-35-2-35-35m-310-40c0-33 2-35 35-35s35 2 35 35-2 35-35 35-35-2-35-35m460-220c0-33 2-35 35-35s35 2 35 35-2 35-35 35-35-2-35-35m-170-850c0-33 2-35 35-35s35 2 35 35-2 35-35 35-35-2-35-35m150-260c0-33 2-35 35-35s35 2 35 35-2 35-35 35-35-2-35-35m640-150c0-33 2-35 35-35s35 2 35 35-2 35-35 35-35-2-35-35m-490-110c0-28 4-35 20-35 12 0 20 7 21 18 0 10 3 12 6 5 9-24 23-13 23 17 0 28-3 30-35 30-33 0-35-2-35-35m-370-510c0-10-10-15-32-15-30 0-63-30-330-297l-298-298v298c0 290 0 297-20 297s-20-7-20-345c0-300-2-345-15-345-8 0-15-7-15-15 0-11 11-15 38-15 36 0 51 14 380 343 309 309 342 345 342 375 0 22-5 32-15 32-8 0-15-7-15-15"/></g><g style="transform:none" fill="#BCBCF5"><path d="M1825 4060c-33-13-63-53-70-92-6-34-5-38 13-38 17 0 22 8 27 44 7 42 9 44 46 50 30 5 39 11 39 26 0 21-20 25-55 10m265-16c0-21 5-24 37-24 35 0 36 1 19 19-10 10-26 21-37 24-15 4-19 0-19-19m60-124v-70h35c24 0 35 5 35 15 0 8-7 15-15 15-10 0-15 10-15 33 0 47-10 77-26 77-11 0-14-17-14-70m1004 4c3-9 6-20 6-25s7-9 15-9c18 0 20 21 3 38s-31 15-24-4m116-750c0-12 415-724 422-724 5 0 8 16 8 35 0 28-4 35-20 35s-20 7-20 35-4 35-20 35-20 7-20 35c0 24-5 35-15 35-9 0-15 9-15 25 0 18-5 25-20 25-16 0-20 7-20 35s-4 35-20 35-20 7-20 35-4 35-20 35-20 7-20 35c0 24-5 35-15 35-9 0-15 9-15 25 0 18-5 25-20 25-16 0-20 7-20 35s-4 35-20 35-20 7-20 35-4 35-20 35-20 7-20 35c0 31-3 35-25 35-14 0-25-3-25-6m420-1941c0-23-680-703-702-703-10 0-18-4-18-10 0-5 15-10 33-10 29 0 64 32 370 338 304 304 337 340 337 370 0 17-4 32-10 32-5 0-10-8-10-17"/><path d="M3000 878V535l340 340c187 187 340 341 340 342 0 2-153 3-340 3h-340z"/></g><path d="M1643 3864c-18-9-39-27-48-40-15-24-15-24 15-24 18 0 33 6 36 15 4 8 12 15 20 15s14 10 14 25c0 14-1 25-2 25-2 0-17-8-35-16m617-14c0-16 7-20 30-20 27 0 30-3 30-30 0-23 4-30 20-30 31 0 25 32-13 68-38 37-67 42-67 12m1068-110c-70-44-67-60 48-262l97-168h37c28 0 62 14 126 52 74 43 95 51 131 49 43-2 43-2 43 34 0 24-4 35-15 35-8 0-15 8-15 18 0 11-20 33-44 50l-45 32-3-24c-3-22-15-14-153 95-82 65-152 118-155 118s-26-13-52-29m-1763-97c-24-166-51-226-185-418-131-186-187-309-206-457-6-44-5-48 15-48 16 0 21 6 21 26 0 64 80 283 117 322 7 7 13 20 13 28s5 14 10 14c6 0 10 7 10 15s5 15 10 15c6 0 10 6 10 14s7 16 15 20c8 3 15 12 15 21 0 8 5 15 10 15 6 0 10 6 10 14s7 16 15 20c8 3 15 12 15 21 0 8 5 15 10 15 6 0 10 7 10 15s4 15 9 15 13 10 17 22c3 12 12 28 20 35 49 49 99 313 59 313-9 0-16-14-20-37m779-60c4-38 11-69 16-71 6-2 10-15 10-28 0-36 40-124 56-124 8 0 14-10 14-25 0-14 5-25 10-25 6 0 10-7 10-15s5-15 10-15c6 0 10-7 10-15s7-15 15-15 15-9 15-20 5-20 10-20c6 0 10-7 10-15s7-15 15-15 15-9 15-20 5-20 10-20c6 0 10-7 10-15s7-15 15-15c9 0 15-9 15-25s6-25 15-25c8 0 15-9 15-20 0-24 21-70 32-70 4 0 8-11 8-25 0-20 5-25 25-25h25l-21 53c-26 66-73 144-171 283-83 118-142 234-153 299-14 86-17 95-32 95-13 0-15-10-9-67m1506-328c0-28 4-35 20-35s20-7 20-35c0-33 2-35 35-35s35 2 35 35c0 28-4 35-20 35s-20 7-20 35c0 33-2 35-35 35s-35-2-35-35m150-260c0-33 2-35 35-35s35 2 35 35-2 35-35 35-35-2-35-35m-1286-142c19-136 18-133 38-133 18 0 20 4 13 48-12 88-27 132-42 132-13 0-14-9-9-47M806 2666c-94-10-111-15-127-35-23-29-23-33-1-61l18-23 134 13c105 10 137 17 151 31 24 24 24 44-1 69-22 22-20 22-174 6m142-42c-28-28-232-45-241-20-4 11 14 16 86 24 51 5 110 10 132 11 36 1 38 0 23-15m2009 39c-24-27-21-60 6-77 12-8 76-19 143-26 140-14 164-8 164 40 0 41-30 56-125 64-44 4-100 9-125 12-37 5-48 2-63-13m216-39c83-9 69-29-19-27-117 3-174 12-174 30 0 16 7 16 193-3m-1999-94c17-128 83-263 176-360 50-52 170-140 192-140 4 0 8 11 8 25 0 18-7 26-25 31-14 3-25 10-25 15s-6 9-14 9-16 7-20 15c-3 8-15 15-26 15s-20 5-20 12c0 16-51 68-67 68-7 0-13 9-13 20s-7 23-15 26c-8 4-15 12-15 19s-4 15-8 17c-20 8-92 207-92 255 0 17-6 23-21 23-20 0-21-4-15-50m1556 26c0-13-9-53-20-88-23-73-26-122-7-116 14 5 52 114 61 181 7 43 5 47-13 47-16 0-21-6-21-24m-96-266c-4-16-13-30-20-30-8 0-14-10-14-25 0-18-5-25-18-25-23 0-52-30-52-53 0-12-8-17-25-17-14 0-28-7-31-15-4-8-12-15-20-15s-14-4-14-9-11-12-25-15c-18-5-25-13-25-31 0-14 4-25 8-25 19 0 131 80 178 127 48 48 114 137 114 155 0 4-11 8-25 8-20 0-27-6-31-30m-1074-261c0-24 172-79 293-94 52-7 57-6 57 12 0 17-9 21-61 27-33 3-101 19-150 36-94 31-139 38-139 19m720-6c-8-3-17-9-20-12-6-8-166-41-197-41-17 0-23-6-23-21 0-19 4-20 53-14 107 13 267 64 267 84 0 11-54 14-80 4m-1079-65c-86-92-131-148-131-164 0-18 36-54 54-54 19 0 44 22 131 119 77 87 89 116 59 145-27 28-53 18-113-46m89-3c0-8-5-15-12-15-25 0-58-43-58-77 0-29-3-33-27-33-15 0-37-10-50-22l-23-21v31c0 26 4 32 22 32 34 0 68 38 68 76 0 29 3 33 33 37 17 2 35 5 40 5 4 1 7-5 7-13m1338 54c-11-6-18-22-18-39 0-23 19-51 86-124 47-52 94-98 104-101 39-12 75 28 61 67-11 29-182 208-199 208-9 0-25-5-34-11m82-61c0-40 25-68 62-68 25 0 28-3 28-34 0-19 5-38 10-41 12-7 4-25-11-25-5 0-9 8-9 17 0 27-41 63-72 63-25 0-28 3-28 33 0 21-8 41-20 52-24 21-18 35 16 35 20 0 24-5 24-32m1793-96c-107-63-113-68-113-99 0-21 19-65 56-127 54-93 57-96 91-96 26 0 68 19 150 66l113 66-36 67c-81 144-109 186-129 188-11 1-71-28-132-65m-2571-114c-19-19-15-48 8-48 11 0 20 5 20 12 0 9 3 9 12 0 18-18 48-15 48 6 0 25-20 42-50 42-14 0-31-5-38-12m-12-276c0-25 20-42 50-42s50 17 50 42c0 21-30 24-48 6-9-9-12-9-12 0 0 7-9 12-20 12-13 0-20-7-20-18m1095-922c-4-7-408-10-1181-10-1167 0-1174 0-1174-20s7-20 1185-20h1185v30c0 31-4 37-15 20" style="transform:none" fill="#F9C795"/><path d="M1658 3869c-29-16-21-29 17-29 28 0 35 4 35 20 0 22-24 26-52 9m-60-46c-10-11-21-34-24-51-6-28-4-32 14-32 16 0 23 8 27 34 4 19 5 42 3 51-3 16-5 16-20-2m1762-63c0-5-6-10-14-10s-21-6-28-12c-8-7-40-26-71-43-48-24-57-34-53-50 3-11 20-119 37-240s33-223 35-227c10-17 37-6 149 58 84 49 115 72 115 86 0 11-5 18-12 16-10-4-120 176-197 321-10 19-6 24 39 52 41 25 48 34 39 45-13 16-39 19-39 4m-1790-95v-35h220v70h-220zm2120-1280c0-28 4-35 20-35s20-7 20-35c0-33 2-35 35-35s35 2 35 35c0 28-4 35-20 35s-20 7-20 35c0 33-2 35-35 35s-35-2-35-35m110-190c0-28 4-35 20-35s20-7 20-35c0-33 2-35 35-35s35 2 35 35c0 28-4 35-20 35s-20 7-20 35c0 33-2 35-35 35s-35-2-35-35m150-260c0-28 4-35 20-35s20-7 20-35c0-33 2-35 35-35s35 2 35 35c0 28-4 35-20 35s-20 7-20 35c0 33-2 35-35 35s-35-2-35-35m670-14c0-5-11-12-25-15-14-4-25-13-25-21 0-9-10-15-24-15s-31-6-38-13-28-19-45-26c-18-7-33-17-33-22s-7-9-15-9-15-4-15-10c0-5-5-10-12-10-17 0-228-124-228-134 0-22 143-256 157-256 13 0 279 145 293 160 3 3 31 18 63 35 31 16 57 32 57 36s10 10 23 13c12 3 28 10 35 14 14 10 6 42-11 42-6 0-61-29-122-65-62-36-115-65-118-65s-31 43-62 97c-43 74-53 98-43 105 28 18 143 84 188 108 42 23 46 28 35 43-13 18-35 23-35 8" style="transform:none" fill="#E6B17C"/><path d="M3690 4061v-530l32-25c30-23 31-26 16-38s1-43 155-310c135-233 176-298 192-298 20 0 20 6 17 865l-2 865h-410zm-2-2218 2-627-347-348-348-348H750V110h3350l-2 820c-2 603 0 816 8 805 6-8 15-15 19-15 24 0-22 91-200 402-157 272-204 347-220 348-20 0-20-6-17-627" style="transform:none" fill="#FCDB35"/><g style="transform:none" fill="#909CD1"><path d="M1838 4063c-10-2-18-11-18-19 0-11 19-14 95-14 88 0 95 1 95 20 0 18-6 20-77 19-43-1-86-3-95-6m212-13c0-17 7-20 40-20 43 0 52 13 21 30-33 17-61 12-61-10m90-55c0-28 4-35 20-35 22 0 26 20 10 51-16 30-30 23-30-16m-384-27c-3-13-6-38-6-55 0-30-3-33-30-33-44 0-93-23-118-55-28-36-28-45 3-45 18 0 25 5 25 20 0 13 7 20 19 20 11 0 21 4 23 8 2 5 20 12 41 15 35 5 36 4 26-14-5-11-13-51-16-89-6-66-5-68 18-73l24-4-23-2c-14 0-22-6-20-13 4-10 80-14 326-16l322-2-3 79c-2 62-7 86-23 108-27 37-80 63-126 63-27 0-38 4-38 15 0 13-25 15-169 15-93 0-181-4-195-10-26-9-26-9-26 40 0 36-4 50-14 50-7 0-16-10-20-22m1410-120c7-51 16-119 20-151 7-58 18-77 35-60 6 6 3 50-6 117-9 59-14 112-11 119 2 7 5 2 5-10 1-16 7-23 21-23 11 0 20-7 20-15s8-15 19-15c10 0 21-9 24-20 3-12 14-20 26-20s21-6 21-15c0-11 11-15 38-15l37 1-35 30c-47 40-216 169-222 169-3 0 1-42 8-92"/><path d="M3290 3705c0-30 3-30 41-8 38 23 37 33-6 33-31 0-35-3-35-25m88-442c-54-31-98-61-98-65s16-8 35-8c24 0 35 5 35 15 0 8 9 15 19 15 30 0 51 11 51 26 0 8 9 14 19 14 35 0 51 12 51 36 0 13-3 24-7 24-5 0-52-26-105-57m1222-1363c0-16-7-20-35-20-24 0-35-5-35-15 0-9-9-15-25-15-18 0-25-5-25-20 0-16-7-20-35-20-19 0-35-4-35-10 0-5-7-10-15-10-9 0-15-9-15-25 0-14 2-25 5-25 5 0 180 102 253 147 27 17 20 33-14 33-17 0-24-5-24-20m-410-245c0-30 3-30 41-8 38 23 37 33-6 33-31 0-35-3-35-25"/></g><path d="M3620 3399c-74-43-136-83-138-88-3-9 878-1545 898-1564 4-5 25 2 46 16 22 14 83 50 137 82 53 31 96 59 93 63-147 256-569 991-666 1162-74 129-157 274-185 321l-50 86zm-349-198c-10-7 38-98 215-402 125-217 310-538 412-714 101-176 193-329 203-340 19-19 19-19 19 17 0 20-6 43-14 50-7 8-17 24-20 36-4 12-14 22-22 22s-14 9-14 19c0 30-11 51-26 51-8 0-14 9-14 19 0 30-11 51-26 51-8 0-14 10-14 24s-6 31-14 38c-7 8-17 24-20 36-4 12-14 22-22 22s-14 9-14 19c0 30-11 51-26 51-8 0-14 9-14 19 0 30-11 51-26 51-8 0-14 10-14 25 0 16-6 25-15 25-8 0-15 9-15 19 0 30-11 51-26 51-8 0-14 10-14 24s-6 31-14 38c-7 8-17 24-20 36-4 12-11 22-15 22s-13 16-20 35-16 35-21 35c-4 0-11 11-14 24-3 14-12 31-19 38-6 8-25 39-42 71-16 31-32 57-35 57s-12 16-19 35-16 35-21 35c-4 0-11 11-14 24-3 14-12 31-19 38-6 8-25 39-42 71-16 31-32 57-35 57s-12 16-19 35-16 35-20 35-13 16-20 35-16 35-20 35c-5 0-11 9-14 20-6 22-14 24-36 11" style="transform:none" fill="#4EB1FC"/><g style="transform:none" fill="#FDC72E"><path d="M1720 3680c0-5 7-10 15-10s15 5 15 10c0 6-7 10-15 10s-15-4-15-10m0-48c0-83-56-200-179-375-98-138-152-239-183-337-21-68-23-94-23-270 0-187 1-198 27-268 48-132 130-243 237-320 26-19 37-32 28-32-10 0-17 4-17 8 0 11-46 32-70 32-11 0-20 7-20 15s-7 15-15 15-15 5-15 10c0 6-8 10-19 10-10 0-21 9-24 20-4 16-13 20-44 20l-38-1 40-35c171-152 468-224 729-179 184 32 324 102 442 219 80 80 132 166 166 276 20 64 23 96 22 215 0 101-5 158-18 205-26 99-95 233-186 360-133 188-171 266-185 384l-7 56h-378v-459l35-17c70-33 133-124 160-233 17-65 10-98-27-138-29-32-52-29-91 11-54 53-82 124-113 284-3 17-11 22-37 22-22 0-41-8-55-22-31-34-70-118-83-179s-24-78-40-62c-8 8-7 25 6 65 39 119 100 206 169 243l36 20v465h-230zm-155-39c-4-21-15-64-25-95l-19-58h23c26 0 44 45 53 137 5 44 3 53-10 53-11 0-18-12-22-37m-130-289c-112-167-175-267-175-276 0-4 11-8 24-8 24 0 36 16 36 51 0 10 7 19 15 19s15 7 15 15 5 15 10 15c6 0 10 7 10 15s5 15 10 15c6 0 10 9 10 20s7 20 15 20 15 7 15 15 5 15 10 15c6 0 10 9 10 20s7 20 15 20 15 7 15 15 5 15 10 15c6 0 10 11 10 25 0 16 6 25 15 25 10 0 15 11 15 35 0 19-3 35-7 34-5 0-39-47-78-105"/><path d="M2000 3088c0-63 27-167 56-215 22-38 29-43 59-43h35v70c0 74-25 158-61 204-15 19-30 26-55 26-33 0-34-1-34-42m-770-123c-25-58-47-143-55-217-7-55-6-58 14-58 17 0 21 6 21 32 0 40 41 212 52 216 12 5 10 72-2 72-6 0-19-20-30-45m-392-302c-36-9-20-33 22-33 33 0 40 3 40 20 0 20-20 24-62 13m102-10c0-11 5-24 12-31 9-9 3-12-30-12-36 0-42-3-42-21 0-20 4-21 42-16 52 7 81 37 69 70-11 28-51 36-51 10m2009-4c-17-32 2-65 41-73 50-10 60-7 60 13 0 14-8 21-27 23-24 3-28 7-25 31 3 22-1 27-17 27-11 0-25-10-32-21m91 1c0-17 7-20 40-20 45 0 57 23 18 34-42 11-58 7-58-14m-2319 1c-40-7-56-29-47-64 7-29 33-41 70-31 33 8 34 34 2 34-14 0-27 4-30 9-7 11 18 21 55 21 22 0 29 5 29 20 0 21-13 23-79 11"/><path d="M3130 2641c0-18 6-21 39-21 22 0 44-6 51-15 11-13 7-15-24-15-49 0-49-27-1-36 27-5 41-2 55 11 45 40 16 81-62 90-55 7-58 6-58-14m-1956-83c12-90 27-138 43-138 13 0 14 9 9 48-4 26-9 68-13 95-4 38-9 47-26 47-18 0-19-4-13-52m-394 22c0-21 23-26 68-14 41 11 26 34-23 34-38 0-45-3-45-20"/><path d="M3070 2586c0-7 10-16 23-20 41-11 57-7 57 14 0 17-7 20-40 20-27 0-40-4-40-14m-1845-223c22-53 58-112 94-153l30-35 1 38c0 26-4 37-15 37-8 0-15 9-15 19 0 11-3 21-7 23-5 2-19 27-32 56-19 41-29 52-48 52-23 0-23 0-8-37m-14-400-56-58 28-3c37-4 57 13 57 49 0 23 4 29 23 29 20 0 22-4 19-42l-3-43 26 28c14 15 25 37 25 47 0 18-34 50-54 50-5 0-35-26-65-57m1421 41c-35-24-26-54 38-124l59-65 1 36c0 40-24 69-58 69-17 0-22 6-22 25 0 32 5 31 33-1 17-19 30-25 52-22l30 3-46 48c-50 52-55 54-87 31m138-125c0-43 18-62 56-57l26 3-40 45-41 45zm-1657-23c-39-44-41-56-9-56s48 22 44 61l-3 33zm89 22c-7-7-12-28-12-47 0-34 0-34 21-15 12 10 30 31 41 47l19 27h-28c-16 0-34-5-41-12m1558-98c24-33 60-41 60-12 0 26-20 42-53 42h-28zm-824-46c-23-22-20-34 9-34 20 0 25 5 25 25 0 29-12 32-34 9m44-17c0-30 4-37 20-37 13 0 20 7 20 18s-9 27-20 37c-20 18-20 17-20-18m0-240q0-13.5-30-9c-33 5-39-8-14-32 21-21 47-20 67 2 23 26 22 52-3 52-11 0-20-6-20-13M660 315V110h120v410H660z"/></g><path d="M1935 4063c-31-2-55-10-62-20-12-16-13-16-13 0 0 27-38 20-71-12-34-35-39-71-9-71 12 0 22 9 26 24 3 13 15 27 27 30s22 4 22 3c1-1-1-26-3-54l-4-53h-44c-31 0-44-4-44-14 0-9-18-16-52-20-90-12-138-68-138-160v-46h177l7 58c4 32 15 71 25 88 33 54 70 64 245 64h156v49c0 63-12 96-45 117-26 17-112 25-200 17m1230-152c-8-27 4-71 21-71 8 0 14 7 14 15s9 15 21 15c24 0 18 12-21 40-28 20-29 20-35 1m95-80c0-29 3-31 36-31 39 0 38 9-6 40l-30 21zm-87-28c3-16 9-56 12-89 8-71 19-94 35-78 8 8 7 37-1 102-11 80-15 92-32 92-16 0-18-5-14-27m177-42c0-32 19-41 48-22 11 6 6 14-17 30l-31 22zm-1780-111c0-6 37-10 90-10s90 4 90 10-37 10-90 10-90-4-90-10m2790-1885c0-8-9-15-19-15-30 0-51-11-51-26 0-8-9-14-19-14-30 0-51-11-51-26 0-8-10-14-25-14-20 0-25-5-25-25 0-14 2-25 5-25s57 30 120 66c113 64 141 94 90 94-16 0-25-6-25-15m348-113c-37-22-35-32 7-32 31 0 35 3 35 25 0 29-6 30-42 7m-363-207c-22-14-44-26-50-28-11-4 12-37 26-37 5 0 9 9 9 20 0 16 7 20 35 20 31 0 35 3 35 25 0 31-5 31-55 0" style="transform:none" fill="#7986BF"/><path d="m3378 3261-117-67 408-705c515-891 503-870 510-867 4 2 57 32 119 68 79 45 112 69 109 80-8 26-894 1554-903 1556-5 2-62-28-126-65" style="transform:none" fill="#2A92FA"/><g style="transform:none" fill="#F9AC00"><path d="M1570 3627c0-99-56-221-191-413-158-224-201-345-202-559-1-182 34-295 131-429 115-157 353-271 607-290 99-7 104 4 11 23-140 30-275 103-375 202-76 76-121 147-159 251-25 68-27 84-27 238 0 145 3 174 23 240 31 98 85 199 183 337 130 185 179 291 179 390v43h-180z"/><path d="M1990 3226c0-30 4-35 29-41 16-3 32-13 35-21s15-14 26-14 20-7 20-15c0-9 11-33 25-53 30-45 65-141 65-177 0-50-23-103-47-108-26-5-103 40-103 59 0 7-4 14-9 16-14 5-60 150-67 211-6 55-8 57-36 57-40 0-68-17-68-40 0-11-7-20-15-20-9 0-18-12-21-30-4-16-10-30-14-30-9 0-40-85-40-110 0-9-7-25-16-36-14-18-15-16-11 23 11 95 115 258 178 278 14 5 19 16 19 41 0 19-4 34-10 34-5 0-10-6-10-13s-16-21-36-32c-76-41-145-149-179-279-13-53-13-62 0-83 17-25 66-32 83-10 5 6 15 36 21 65 13 65 56 153 86 182 26 25 28 23 40-59 33-210 172-334 259-230 33 39 41 89 28 161-22 117-92 227-167 262-19 10-35 23-35 31s-7 15-15 15c-10 0-15-10-15-34"/><path d="M2003 3058c6-105 39-195 74-209 13-5 38-9 55-9h31l-5 73c-4 64-35 161-56 177-4 3-12 14-18 25-7 13-24 21-49 23l-38 3zm97-64c12-34 20-74 18-98l-3-41-27 45c-24 41-58 152-58 190 1 28 47-37 70-96M800 2659c-41-5-85-11-97-14-30-7-41-51-19-73 14-14 29-15 147-4 73 6 138 17 145 23 17 14 18 51 2 67-13 13-66 14-178 1m2162-1c-16-16-15-53 1-66 14-12 163-32 240-32 41 0 49 3 59 25 20 45-7 60-130 73-134 15-155 15-170 0m-1793-743c-85-97-100-125-79-151 27-31 56-16 137 74 44 48 85 97 92 110 17 32-1 62-38 62-23 0-43-18-112-95m1451 76c-5-11-10-25-10-31s41-55 91-110c91-100 118-117 147-88s16 52-115 191c-59 61-94 73-113 38m-683-259c-14-15-17-42-17-150 0-124 1-132 22-146 29-20 34-20 58 4 18 18 20 33 20 143 0 95-4 128-16 145-18 27-45 28-67 4"/></g><path d="M1920 3440v-219l-27-15c-73-38-146-146-179-264-20-73-13-109 22-118s51 9 69 79c18 71 54 143 91 182l28 30 13-76c29-173 100-279 188-279 69 0 99 51 93 159-4 59-12 91-37 144-35 73-98 143-137 153l-24 6v438h-100zm169-412c31-61 48-138 36-158-21-34-80 85-92 188-6 52-5 56 10 44 9-8 30-41 46-74" style="transform:none" fill="#F60"/><path d="M1811 4046c-35-19-50-54-51-113v-53h120v39c0 48 14 89 42 119l21 22h-54c-30-1-65-7-78-14m1349-123c0-33 38-284 43-290 3-3 51 21 106 53s97 61 93 65c-4 3-60 47-124 98-84 65-118 86-118 74m63-83c3-12 14-20 26-20s21-6 21-15c0-8 8-15 19-15s21-9 25-22c10-39 7-48-18-48-14 0-32-7-41-16s-19-14-22-10c-10 9-31 166-22 166 3 0 9-9 12-20m1302-2293c-126-73-230-136-230-142 0-5 12-11 28-13 22-3 27 1 27 17 0 17 6 21 35 21 24 0 35 5 35 15 0 9 9 15 25 15 18 0 25 5 25 20 0 16 7 20 35 20 19 0 35 5 35 10 0 6 9 10 20 10s20 7 20 15 9 15 19 15c30 0 51 11 51 26 0 8 10 14 25 14 18 0 25 5 25 20 0 16 7 20 35 20 31 0 35 3 35 25 0 14-3 25-7 24-5 0-111-59-238-132" style="transform:none" fill="#5D689E"/><path d="M3164 3898c3-18 13-85 22-148s17-116 19-118c2-3 174 95 188 108 5 4-40 46-100 92-141 110-135 107-129 66m1529-2257c-45-27-112-66-150-86-37-21-109-62-160-92l-92-54 27-44c15-25 30-45 34-45 5 0 8 16 8 35 0 26-4 35-17 36-10 0-3 5 15 10 17 5 32 16 32 24 0 9 10 15 24 15s31 6 38 14c8 7 24 17 36 20 12 4 22 15 22 24s41-54 91-140c90-157 90-157 117-146 39 17 90 66 120 117 20 34 26 61 30 120 4 73 2 79-38 159-23 45-44 82-48 82-4-1-44-23-89-49" style="transform:none" fill="#3D4A75"/><path d="M4425 1485c-60-36-114-66-120-68-18-7 49-118 99-163 58-53 134-79 210-71 56 6 106 25 106 40 0 8-179 327-184 327 0 0-50-30-111-65" style="transform:none" fill="#323E66"/></svg>