<svg width="250" height="188" xmlns="http://www.w3.org/2000/svg" class="img-fluid"><g stroke="null"><path fill="#14313E" d="M-.466 93.936V-.26h250.448v188.392H-.466zm64.02 39.264v-7.363l-2.3-.062c-1.941-.063-2.458-.126-3.209-.44-1.346-.534-2.614-1.758-3.271-3.171l-.533-1.146V66.855l.345-.864c.548-1.334 1.706-2.543 3.13-3.25 1.206-.596 1.206-.596 3.522-.659l2.317-.047V47.294l-6.919.047c-6.543.062-6.997.078-7.998.392-2.145.675-4.101 1.837-5.526 3.25-.955.958-2.3 3.03-2.77 4.27-.877 2.276-.893 2.543-.893 15.056v11.507l-2.066.063c-2.38.063-2.864.236-3.663 1.413l-.454.644-.047 9.64c-.03 6.436.016 9.827.126 10.25.156.613.782 1.367 1.534 1.853.297.204.892.267 2.473.314l2.082.063.062 12.12c.047 11.084.063 12.183.329 13.046 1.002 3.36 3.256 6.201 6.199 7.819 2.504 1.381 3.35 1.49 11.082 1.507l6.449.015zm137.199 6.987c4.712-1.398 8.186-5.166 9.079-9.891.188-1.005.234-3.187.234-12.748v-11.523h1.91c2.16 0 2.927-.236 3.616-1.162.751-.973.751-1.13.704-11.32l-.047-9.576-.375-.596c-.204-.346-.705-.785-1.174-1.052-.767-.456-.877-.471-2.708-.471h-1.91l-.047-12.12c-.062-11.916-.062-12.151-.391-13.203-1.002-3.156-2.74-5.495-5.322-7.19-.642-.409-1.55-.895-2.05-1.084-2.27-.848-2.16-.848-9.455-.91l-6.856-.047v14.741l2.317.063c1.925.063 2.441.141 3.193.424 1.33.55 2.504 1.68 3.209 3.124l.594 1.193v54.022l-.36.973c-.547 1.429-1.737 2.669-3.193 3.344-1.111.518-1.205.55-3.443.597l-2.317.062v14.742l6.934-.063c6.027-.047 7.044-.094 7.858-.33m-116.912-1.083c.564-.298 2.755-2.402 8.046-7.708 7.184-7.222 7.278-7.316 7.904-7.316.61 0 .72.094 6.966 6.358l6.34 6.359 3.944-3.957 3.945-3.956-5.244-5.244c-5.181-5.212-5.228-5.259-5.228-5.903s.047-.69 4.383-5.023c2.41-2.402 4.382-4.412 4.382-4.459 0-.063-2.755-2.873-6.136-6.264l-6.136-6.154-4.445 4.474c-4.273 4.286-4.461 4.459-5.025 4.459-.579 0-.782-.173-5.838-5.26l-5.228-5.243-3.945 3.956-3.944 3.956 6.34 6.359c6.213 6.248 6.339 6.374 6.339 6.986s-.11.738-7.342 8.007c-4.696 4.725-7.45 7.614-7.654 8.022-.532 1.052-.58 2.025-.172 3.108.266.754.626 1.24 1.753 2.402 1.44 1.508 2.066 1.979 3.068 2.355.783.283 2.004.157 2.927-.314m85.011.189c.705-.283 1.206-.66 2.426-1.837 1.863-1.806 2.395-2.747 2.38-4.192 0-1.664-.141-1.821-8.108-9.812-7.044-7.049-7.295-7.316-7.295-7.897 0-.565.235-.816 6.355-6.955l6.371-6.373-3.96-3.972-3.96-3.972-5.228 5.243c-5.04 5.04-5.275 5.244-5.839 5.244-.58 0-1.284-.69-30.398-29.907L91.777 44.954H79.364v12.371l29.82 29.892c29.802 29.876 29.818 29.892 29.818 30.52s-.078.722-5.244 5.887l-5.243 5.243 3.96 3.972 3.976 3.988 6.355-6.374c6.151-6.186 6.37-6.374 6.95-6.374s.798.204 7.795 7.222c3.96 3.987 7.435 7.378 7.732 7.567 1.284.816 2.223.926 3.57.424m-12.476-68.198 13.774-13.816V44.954H157.77l-13.759 13.8c-7.576 7.599-13.775 13.863-13.775 13.941 0 .188 12.116 12.293 12.257 12.246.062-.016 6.308-6.249 13.884-13.847"/><g fill="#FFDF00"><path d="M49.139 140.799c-2.693-.534-4.743-1.664-6.575-3.611-1.174-1.256-1.847-2.198-2.41-3.422-1.127-2.465-1.08-1.696-1.127-15.119l-.063-12.12-2.082-.063c-1.58-.047-2.176-.11-2.473-.314-.751-.486-1.377-1.24-1.534-1.852-.11-.424-.156-3.972-.125-10.723l.047-10.11.454-.644c.798-1.177 1.283-1.35 3.663-1.413l2.066-.063V69.838c0-12.513.015-12.78.892-15.056.47-1.24 1.816-3.312 2.77-4.27 1.425-1.413 3.382-2.56 5.526-3.25 1.017-.314 1.44-.33 8.468-.392l7.388-.047v15.683l-2.316.047c-2.317.063-2.317.063-3.522.66-1.424.706-2.583 1.915-3.13 3.25l-.345.863v53.22l.532 1.147c.658 1.413 1.925 2.637 3.272 3.171.751.314 1.268.377 3.208.44l2.301.062v15.668l-6.918-.015c-5.056-.016-7.216-.063-7.967-.22m136.352-7.583v-7.85l2.317-.062c2.238-.048 2.332-.079 3.444-.597 1.455-.675 2.645-1.915 3.193-3.344l.36-.973V67.31l-.595-1.193c-.704-1.444-1.878-2.575-3.209-3.124-.751-.283-1.268-.361-3.193-.424l-2.317-.063V46.823l7.326.047c6.183.047 7.435.094 8.17.314 1.676.502 2.662.942 3.804 1.68 2.583 1.695 4.32 4.034 5.322 7.19.33 1.052.33 1.287.392 13.203l.047 12.12h1.91c1.83 0 1.94.016 2.707.47.47.268.97.707 1.174 1.053l.376.596.047 10.048c.047 10.675.047 10.817-.704 11.79-.69.926-1.456 1.162-3.616 1.162h-1.91v11.523c0 12.497-.016 12.795-.876 15.04-1.065 2.795-3.616 5.526-6.371 6.798-2.332 1.083-2.239 1.067-10.394 1.13l-7.404.063zm-105.047 6.672c-1.001-.376-1.627-.847-3.068-2.355-1.768-1.836-2.16-2.684-2.034-4.521.047-.785.187-1.429.422-1.884.235-.47 2.646-3.014 7.686-8.07 4.038-4.066 7.341-7.457 7.341-7.535 0-.094-2.958-3.124-6.574-6.75l-6.574-6.595 4.335-4.348c2.395-2.402 4.415-4.365 4.493-4.365s2.567 2.434 5.541 5.417c2.958 2.982 5.447 5.416 5.51 5.416.078 0 2.207-2.088 4.743-4.631s4.664-4.632 4.742-4.632 3.1 2.967 6.716 6.594l6.558 6.578-.313.345c-.156.189-2.254 2.292-4.633 4.679-2.395 2.386-4.352 4.411-4.352 4.506s2.427 2.621 5.4 5.588c2.975 2.983 5.4 5.48 5.4 5.558s-1.956 2.104-4.35 4.506l-4.352 4.348-6.559-6.593c-3.616-3.627-6.637-6.594-6.73-6.594-.079 0-3.429 3.297-7.436 7.316-5.337 5.353-7.482 7.41-8.06 7.708-.956.503-2.928.66-3.852.314"/><path d="M165.91 139.873a6 6 0 0 1-1.096-.534c-.298-.189-3.773-3.58-7.733-7.567-3.96-3.972-7.263-7.222-7.325-7.222-.079 0-3.1 2.967-6.715 6.61l-6.59 6.609-4.352-4.365c-2.41-2.417-4.367-4.458-4.367-4.537 0-.094 2.426-2.59 5.4-5.557s5.4-5.48 5.4-5.558c0-.094-13.414-13.627-29.818-30.064l-29.82-29.892V44.483h13.353l29.819 29.908c16.388 16.453 29.865 29.907 29.928 29.907s2.551-2.434 5.541-5.416c2.974-2.983 5.463-5.417 5.526-5.417.078 0 2.097 1.963 4.492 4.38l4.352 4.38-6.59 6.61c-3.616 3.627-6.59 6.657-6.59 6.72 0 .078 3.287 3.406 7.294 7.425 5.213 5.228 7.404 7.52 7.701 8.085.36.675.423.974.423 2.198 0 1.963-.376 2.7-2.395 4.663-1.22 1.177-1.722 1.554-2.426 1.837-1.033.376-2.536.424-3.412.11"/><path d="M135.825 79.367c-3.585-3.595-6.528-6.61-6.528-6.672 0-.078 6.308-6.452 14.01-14.176L157.3 44.483h13.321V57.75l-14.01 14.05c-7.7 7.724-14.056 14.067-14.118 14.083-.079.03-3.068-2.905-6.668-6.516"/></g></g></svg>