<svg xmlns="http://www.w3.org/2000/svg" width="38" height="40" viewBox="0 0 38 40" fill="none"><g filter="url(#a)" fill="#0B192C" stroke="#0B192C"><path d="m5.6 17.436-.009.509h7.544c2.365 0 4.135 1.772 4.135 4.12v4.5c0 2.364-1.771 4.135-4.135 4.135h-4.5A4.14 4.14 0 0 1 4.5 26.565V18.48c0-4.342.445-6.868 1.455-8.671 1.005-1.795 2.607-2.945 5.14-4.444l.004-.002a.53.53 0 0 1 .733.181l.002.005a.547.547 0 0 1-.186.757C9.51 7.572 7.978 8.555 7.005 10.16c-.971 1.605-1.345 3.762-1.405 7.276Zm16.23 0-.009.509h7.544c2.364 0 4.133 1.771 4.12 4.132v4.503c0 2.364-1.771 4.135-4.135 4.135h-4.5a4.14 4.14 0 0 1-4.135-4.135v-8.085c0-4.35.445-6.879 1.455-8.685 1.005-1.796 2.606-2.946 5.139-4.444a.547.547 0 0 1 .757.185.547.547 0 0 1-.188.755c-2.138 1.266-3.67 2.249-4.643 3.854-.971 1.605-1.345 3.762-1.405 7.276Z"/></g><defs><filter id="a" x="0" y="4.785" width="37.985" height="34.43" filterUnits="userSpaceOnUse" color-interpolation-filters="sRGB"><feFlood flood-opacity="0" result="BackgroundImageFix"/><feColorMatrix in="SourceAlpha" values="0 0 0 0 0 0 0 0 0 0 0 0 0 0 0 0 0 0 127 0" result="hardAlpha"/><feOffset dy="4"/><feGaussianBlur stdDeviation="2"/><feComposite in2="hardAlpha" operator="out"/><feColorMatrix values="0 0 0 0 0 0 0 0 0 0 0 0 0 0 0 0 0 0 0.25 0"/><feBlend in2="BackgroundImageFix" result="effect1_dropShadow_206_196"/><feBlend in="SourceGraphic" in2="effect1_dropShadow_206_196" result="shape"/></filter></defs></svg>