<svg class="img-fluid" xmlns="http://www.w3.org/2000/svg" style="transform:none;transform-origin:50% 50%;cursor:move" width="479" height="479" viewBox="0 0 4790 4790"><g style="transform:none" fill="#FF6500"><path d="M2240 4779c-567-33-1126-287-1534-695-378-378-619-875-686-1419-15-116-15-424 0-540 67-544 308-1041 686-1419S1581 87 2125 20c116-15 424-15 540 0 932 116 1704 741 1994 1615 87 262 123 481 123 760s-36 498-123 760c-339 1023-1331 1689-2419 1624M772 3383c9-10 58-126 111-258 104-264 526-1302 614-1513l56-133 34 3c33 3 35 6 74 103 22 55 87 216 145 358 57 142 104 269 104 282 0 14-106 279-235 590-130 311-233 570-230 575 4 6 214 10 576 10 470 0 569-2 569-13 0-8-103-265-230-571-135-328-230-570-230-589 0-18 62-184 147-390l146-358 35 3 36 3 296 740c162 407 331 830 374 940s85 208 93 218c13 14 33 17 109 17 51 0 95-3 97-7 6-11-916-2240-936-2264-13-14-30-19-69-19-29 0-59 4-67 9s-87 184-176 398l-162 388-34 3-34 3-90-218c-181-443-234-566-247-574-17-11-109-11-126 0-12 7-952 2251-952 2272 0 5 42 9 93 9 77 0 97-3 109-17m3525-833c141-65 236-225 212-355-27-143-138-258-286-295-156-40-348 96-394 278-40 159 89 346 271 396 68 19 117 13 197-24"/><path d="M1740 3203c0-44 11-75 145-406l100-248 34 3 33 3 124 310c70 175 124 324 124 342v33h-560z"/></g><path d="M534 3406c-6-25 22-94 685-1685 143-343 266-628 273-632 17-11 169-11 186 0 13 8 66 131 247 573 49 120 92 215 96 210 4-4 77-178 164-387s165-386 173-392c10-8 47-13 99-13 70 0 86 3 100 19 9 11 225 525 480 1143 328 794 463 1132 461 1153l-3 30-126 3c-110 2-127 0-141-15-9-10-53-112-98-228-164-418-662-1660-669-1668-4-4-74 154-155 351l-147 359 236 572c155 375 235 581 233 599l-3 27-603 3-602 2-11-24c-13-28-22-4 275-716l194-465-18-45c-60-148-258-638-264-655-7-17-12-12-33 35-35 76-512 1246-640 1570-58 146-112 273-121 283-13 14-33 17-138 17-122 0-124 0-130-24m1733-208c-106-270-241-605-246-610-8-9-250 586-251 615 0 4 113 7 251 7 197 0 250-3 246-12m1803-593c-283-80-376-428-169-634 150-151 402-147 540 7 114 126 137 288 62 435-77 152-269 237-433 192" style="transform:none" fill="#FFF"/></svg>