<svg width="41" height="30" xmlns="http://www.w3.org/2000/svg" xml:space="preserve" version="1.1">

 <g>
  <title>Layer 1</title>
  <g id="XMLID_728_">
   <path fill="#f5ab35" d="m32.11667,10.95l-31.6,0l0,18.4l31.6,0l5.8,-9.4l-5.8,-9zm1.2,10.6c-0.8,0 -1.5,-0.7 -1.5,-1.5s0.7,-1.5 1.5,-1.5s1.5,0.7 1.5,1.5s-0.7,1.5 -1.5,1.5" id="XMLID_803_"/>
   <path stroke-miterlimit="10" stroke="#414042" fill="none" d="m34.81667,20.05l3,0c1.1,0 2,-0.9 2,-2l0,-7.3c0,-1.1 -0.9,-2 -2,-2l-28,0c-1.1,0 -2,-0.9 -2,-2s0.9,-2 2,-2l7.5,0c1.1,0 2,-0.9 2,-2l0,-2.1" class="st9" id="XMLID_798_"/>
   <path stroke-miterlimit="10" stroke="#414042" fill="none" d="m1.01667,13.95l0,15.2l25.8,0" class="st9" id="XMLID_799_"/>
   <g id="XMLID_804_">
    <path fill="#fff" d="m8.81667,16.75c-0.4,0 -0.7,0.1 -0.9,0.2c-0.2,0.2 -0.4,0.4 -0.4,0.7s0.1,0.6 0.4,0.7c0.2,0.2 0.8,0.3 1.6,0.5s1.4,0.5 1.8,0.8s0.6,0.9 0.6,1.5c0,0.7 -0.3,1.2 -0.8,1.6s-1.2,0.6 -2,0.6c-1.2,0 -2.3,-0.4 -3.2,-1.3l0.8,-1c0.8,0.7 1.6,1 2.4,1c0.4,0 0.8,-0.1 1,-0.3s0.4,-0.4 0.4,-0.7s-0.1,-0.5 -0.3,-0.7s-0.6,-0.3 -1.2,-0.5c-0.6,-0.1 -1,-0.3 -1.3,-0.4s-0.6,-0.3 -0.8,-0.4c-0.5,-0.3 -0.7,-0.9 -0.7,-1.6s0.3,-1.3 0.8,-1.7s1.2,-0.6 1.9,-0.6c0.5,0 1,0.1 1.5,0.2c0.5,0.2 0.9,0.4 1.3,0.7l-0.7,1c-0.2,-0.2 -0.5,-0.4 -0.9,-0.5c-0.5,0.3 -0.9,0.2 -1.3,0.2" class="st12" id="XMLID_806_"/>
    <path fill="#fff" d="m18.91667,15.75l0,1.2l-4.1,0l0,2l3.7,0l0,1.2l-3.7,0l0,2.1l4.3,0l0,1.2l-5.6,0l0,-7.7l5.4,0z" class="st12" id="XMLID_808_"/>
    <path fill="#fff" d="m27.01667,22.35c-0.8,0.8 -1.8,1.1 -2.9,1.1c-1.2,0 -2.1,-0.4 -2.9,-1.1c-0.8,-0.8 -1.2,-1.7 -1.2,-2.9c0,-1.1 0.4,-2.1 1.2,-2.9s1.8,-1.1 2.9,-1.1c1.2,0 2.1,0.4 2.9,1.1s1.2,1.7 1.2,2.9s-0.4,2.2 -1.2,2.9m-0.9,-4.8c-0.5,-0.5 -1.2,-0.8 -1.9,-0.8c-0.8,0 -1.4,0.3 -1.9,0.8s-0.8,1.2 -0.8,2s0.3,1.4 0.8,2c0.5,0.5 1.2,0.8 1.9,0.8c0.8,0 1.4,-0.3 1.9,-0.8s0.8,-1.2 0.8,-2s-0.3,-1.5 -0.8,-2" class="st12" id="XMLID_810_"/>
   </g>
  </g>
 </g>
</svg>